<!--?xml version="1.0" encoding="utf-8"?-->
<!-- Generator: Adobe Illustrator 15.0.0, SVG Export Plug-In . SVG Version: 6.00 Build 0)  -->

<svg xmlns="http://www.w3.org/2000/svg" xmlns:xlink="http://www.w3.org/1999/xlink" width="500px" height="500px" viewBox="0 0 500 500">
<path fill="#E75025" d="M422.75,166.25L386.25,201l9.25,9.5l39.25-36C434.75,174.5,428.25,162.75,422.75,166.25z" id="path-0"></path>
<rect x="440.25" y="325.75" fill="#7D1419" width="52.5" height="12.75" id="rect-0"></rect>
<rect x="16.25" y="324.75" fill="#009444" width="52.5" height="12.75" id="rect-1"></rect>
<path fill="#94C13D" d="M86.25,165.25l36.5,34.75l-9.25,9.5l-39.25-36C74.25,173.5,80.75,161.75,86.25,165.25z" id="path-1"></path>
<ellipse fill="#A32B22" cx="247" cy="334.001" rx="46" ry="50.252" id="ellipse-0" style="position: relative;"></ellipse>
<path fill="#250E2C" d="M263,299l146-58.667c0,0,17.677-7.028,9.34,2.034l-5.98,4.712l-123.778,89.617
	C288.581,336.696,248.5,337.5,263,299z" id="path-2" style="position: relative;"></path>
<ellipse fill="#EA816B" cx="247.333" cy="334.334" rx="39.667" ry="43.333" id="ellipse-1" style="position: relative;"></ellipse>
<path fill="#E44A25" d="M213.208,355.712c0,0,10.792-49.712,69.647-40.518l0.052-0.007c0,0,0.875,1.719,1.688,4.266
	s2.782,9.214,2.323,17.256c-0.305,5.342-0.75,7-1.833,10.792s-4.499,12.209-9.666,17.417c0,0-6.459,7.457-15.167,10.374
	c0,0-10.167,4.751-22.458,1.084c0,0-9.25-1.167-19.25-12.125c0,0-4.042-5.048-5.433-7.923
	C213.109,356.328,213.118,356.033,213.208,355.712z" id="path-3" style="position: relative;"></path>
<path fill="none" stroke="#000000" stroke-width="16" d="M31.997,404C24.215,380.751,20,355.868,20,330
	C20,201.318,124.318,97,253,97c128.683,0,233,104.318,233,233c0,26.319-4.364,51.619-12.408,75.216" id="path-4" style="position: relative;"></path>
<rect x="238.744" y="103.794" fill="#EED03F" width="12.9" height="49.614" id="rect-2"></rect>
</svg>
