<?xml version="1.0" encoding="utf-8"?>
<!-- Svg Vector Icons : http://www.onlinewebfonts.com/icon -->
<!DOCTYPE svg PUBLIC "-//W3C//DTD SVG 1.1//EN" "http://www.w3.org/Graphics/SVG/1.1/DTD/svg11.dtd">
<svg version="1.1" xmlns="http://www.w3.org/2000/svg" fill="#777"  xmlns:xlink="http://www.w3.org/1999/xlink" x="0px" y="0px" viewBox="0 0 1000 1000" enable-background="new 0 0 1000 1000" xml:space="preserve">
<metadata> Svg Vector Icons : http://www.onlinewebfonts.com/icon </metadata>
<g><g><path d="M500,10C229.4,10,10,229.4,10,500c0,270.6,219.4,490,490,490c270.6,0,490-219.4,490-490C990,229.4,770.6,10,500,10z M500,913.4C271.7,913.4,86.6,728.3,86.6,500S271.7,86.6,500,86.6S913.4,271.7,913.4,500S728.3,913.4,500,913.4z"/><path d="M421.3,255l-19.4,75.6h-1.9L379.5,255h-31.7L388,380.4v52.8h23.1v-56.2L453.2,255H421.3z M521.8,337.4c0-10.7-3.5-21.1-9.6-27.3c-7.1-7.1-10.6-11.2-22.2-11.2c-12.7,0-16.2,4.8-23.8,11.2c-7.5,6.5-10.9,15.6-10.9,26.4V395c0,11.9,3.7,21.3,11,28.4c7.3,6.9,10.9,10.4,23,10.4c12.6,0,14.3-3.4,21.6-10.1c7.2-6.8,10.7-16.2,10.7-28.1L521.8,337.4L521.8,337.4z M610.9,299.1h-22.3v89.2c-2.6,3.1-14.3,18.9-16.4,18.9c-2.6,0-3.1-0.7-4.3-2.2c-1.2-1.5-1.8-3.8-1.8-7.1v-98.8h-22.4v108.4c0,8.4,0.7,20.6,5.2,25.2c3.1,3.1,12.7,3.6,21.4-3.1c6.7-5.1,12.3-12.3,18.2-22.9v23.7h22.3V299.1z M745,568.7c0-50.5-40-91.5-89.5-91.5h-311c-49.4,0-89.5,41-89.5,91.5v84.8c0,50.5,40.1,91.5,89.5,91.5h311c49.5,0,89.5-41,89.5-91.5V568.7z M621.7,700.2c-10.2,0-18.2-3.2-24-9.7c-5.8-6.3-8.8-15.2-8.8-26.4v-52.6c0-10.1,3.3-28.7,9.7-35c6.5-6.5,14.7-9.6,24.8-9.6c10.4,0,18.4,2.9,23.9,8.8c5.7,6,8.4,24.8,8.4,35.8v22.2h-43.4v29.6c0,6.2,0.8,10.4,2.3,12.9c1.5,2.4,4,3.6,7.7,3.6c3.7,0,6.3-1,7.8-3.1c1.5-2,2.3-6.4,2.3-13.4v-5.3h23.3v6.1c0,12-2.8,21-8.5,27.1C641.4,697.1,632.9,700.2,621.7,700.2z M632.3,615.4v-4.1c0-5-0.8-18.8-2.4-20.8c-1.5-2.1-4.1-3.2-7.6-3.2c-3.6,0-6.2,1.1-7.7,3.2c-1.6,2.1-2.4,15.9-2.4,20.8v4.1H632.3z M545.5,700.5c-4.6,0-8.7-1-12.3-2.8c-3.5-1.7-6.8-4.4-10-8.3v9.4h-23.5V522h22.2v53.4c3.2-3.7,8-6.6,11.3-8.5c3.6-1.9,7.2-2.9,10.9-2.9c7.3,0,13.1,2.7,16.9,7.9c3.9,5.2,5.8,12.8,5.8,22.8v78.8c0,8.7-1.8,15.3-5.4,19.9C557.7,698,552.4,700.5,545.5,700.5z M544.9,596.1c0-4.1-2.9-7.2-4.5-9.4c-1.8-2.1-4.2-3.1-7.3-3.1c-1.7,0-3.3,0.4-5,1.2c-1.6,0.7-4.5,2-6.2,3.7v87.1c1.9,1.9,5.1,3.4,7,4.3c1.8,0.9,3.6,1.4,5.6,1.4c2.8,0,5-0.9,6.3-2.7c1.3-1.6,4-4.5,4-8.4L544.9,596.1L544.9,596.1L544.9,596.1z M454.3,684.2c-4.3,4.8-8.8,10-13.5,12.6c-4.6,2.7-9.1,3.9-13.5,3.9c-5.4,0-9.5-1.8-12.2-5.4c-2.8-3.6-4.8-9-4.8-16.2V567.1h22.6v103.6c0,2.8,0.5,4.9,1.5,6.2c1,1.2,2.6,1.9,4.8,1.9c1.7,0,5.3-0.8,7.9-2.6c2.6-1.6,6.4-3.9,8.6-6.4V567.1h22v133.1h-23.4L454.3,684.2L454.3,684.2z M388.6,700.1h-22.4V544.3h-21.9V522h66.9v22.3h-22.6V700.1L388.6,700.1z M488.8,409.7c-3.7,0-6.6-1-8.5-3.1c-2-2.1-3-5-3-8.9v-62.1c0-3.1,1.1-5.5,3.2-7.4c2.1-1.9,4.9-2.9,8.3-2.9c3.7,0,5.3,1,7.6,2.9c2.2,1.9,3.4,4.3,3.4,7.4v62.1c0,3.8-1.2,6.7-3.3,8.9C494.1,408.6,492.6,409.7,488.8,409.7z"/></g><g></g><g></g><g></g><g></g><g></g><g></g><g></g><g></g><g></g><g></g><g></g><g></g><g></g><g></g><g></g></g>
</svg>